<svg width="19" height="21" viewBox="0 0 19 21" fill="none" xmlns="http://www.w3.org/2000/svg">
<path d="M17.5933 10.1305C16.8324 9.24195 16.4866 8.47191 16.4866 7.16368V6.71887C16.4866 5.01408 16.0942 3.91567 15.2411 2.81727C13.9263 1.11143 11.7129 0.083313 9.54611 0.083313H9.45397C7.3327 0.083313 5.18865 1.06422 3.85108 2.70082C2.95143 3.82125 2.51351 4.96687 2.51351 6.71887V7.16368C2.51351 8.47191 2.1905 9.24195 1.4068 10.1305C0.830153 10.7852 0.645874 11.6266 0.645874 12.5372C0.645874 13.4488 0.945068 14.3122 1.54553 15.0141C2.32923 15.8555 3.43593 16.3926 4.56645 16.486C6.20322 16.6727 7.83998 16.743 9.50056 16.743C11.1601 16.743 12.7969 16.6255 14.4347 16.486C15.5641 16.3926 16.6709 15.8555 17.4546 15.0141C18.054 14.3122 18.3542 13.4488 18.3542 12.5372C18.3542 11.6266 18.1699 10.7852 17.5933 10.1305" fill="#757377"/>
<path opacity="0.4" d="M11.5923 18.0296C11.0716 17.9184 7.89848 17.9184 7.37774 18.0296C6.93257 18.1324 6.45117 18.3716 6.45117 18.8962C6.47705 19.3966 6.77004 19.8383 7.17586 20.1184L7.17483 20.1194C7.69971 20.5286 8.3157 20.7888 8.96067 20.8821C9.30438 20.9293 9.6543 20.9272 10.0104 20.8821C10.6544 20.7888 11.2704 20.5286 11.7952 20.1194L11.7942 20.1184C12.2 19.8383 12.493 19.3966 12.5189 18.8962C12.5189 18.3716 12.0375 18.1324 11.5923 18.0296" fill="#757377"/>
</svg>
