<svg width="17" height="21" viewBox="0 0 17 21" fill="none" xmlns="http://www.w3.org/2000/svg">
<path opacity="0.4" d="M8.49077 17.3974L1.72855 20.7751C1.21788 21.0523 0.580879 20.8672 0.295255 20.3586C0.211839 20.1988 0.167728 20.021 0.166626 19.8404V12.28C0.166626 13.0295 0.589265 13.4922 1.70099 14.0105L8.49077 17.3974Z" fill="#200E32"/>
<path fill-rule="evenodd" clip-rule="evenodd" d="M5.26585 0.083313H11.6973C14.518 0.083313 16.8057 1.19378 16.8333 4.03474V19.8404C16.8322 20.0181 16.788 20.1928 16.7047 20.3494C16.5707 20.6048 16.3395 20.7944 16.064 20.8747C15.7885 20.955 15.4924 20.919 15.2438 20.7751L8.49077 17.3974L1.70099 14.0105C0.589265 13.4922 0.166626 13.0296 0.166626 12.28V4.03474C0.166626 1.19378 2.45439 0.083313 5.26585 0.083313ZM4.56757 8.02315H12.4048C12.8564 8.02315 13.2225 7.65441 13.2225 7.19955C13.2225 6.74469 12.8564 6.37595 12.4048 6.37595H4.56757C4.11596 6.37595 3.74986 6.74469 3.74986 7.19955C3.74986 7.65441 4.11596 8.02315 4.56757 8.02315Z" fill="#757377"/>
</svg>
