<svg width="16" height="14" viewBox="0 0 16 14" fill="none" xmlns="http://www.w3.org/2000/svg">
<path fill-rule="evenodd" clip-rule="evenodd" d="M11.5325 5.55415C11.5325 5.92873 11.8325 6.2284 12.2075 6.2284C12.5825 6.2284 12.89 5.92873 12.89 5.55415C12.89 5.17956 12.5825 4.87241 12.2075 4.87241C11.8325 4.87241 11.5325 5.17956 11.5325 5.55415ZM10.0775 10.0791C9.545 10.611 8.81 10.9407 8 10.9407C7.2125 10.9407 6.4775 10.6335 5.915 10.0791C5.36 9.51725 5.0525 8.78307 5.0525 7.99644C5.045 7.21731 5.3525 6.48313 5.9075 5.92125C6.47 5.35937 7.2125 5.05222 8 5.05222C8.7875 5.05222 9.53 5.35937 10.085 5.91376C10.64 6.47563 10.9475 7.21731 10.9475 7.99644C10.94 8.81304 10.61 9.54722 10.0775 10.0791ZM7.99999 6.1759C7.51249 6.1759 7.05499 6.3632 6.70249 6.7153C6.35749 7.05992 6.16999 7.51691 6.17749 7.98889V7.99638C6.17749 8.48334 6.36499 8.94033 6.70999 9.28495C7.05499 9.62957 7.51249 9.81686 7.99999 9.81686C9.00499 9.81686 9.81499 9.00027 9.82249 7.99638C9.82249 7.50942 9.63499 7.05243 9.28999 6.70781C8.94499 6.3632 8.48749 6.1759 7.99999 6.1759Z" fill="#864AFC"/>
<path opacity="0.4" d="M12.08 2.6773L12.005 2.51249C11.8025 2.08546 11.57 1.59101 11.4275 1.30633C11.0825 0.632075 10.49 0.257492 9.7625 0.25H6.23C5.5025 0.257492 4.9175 0.632075 4.5725 1.30633C4.4225 1.60599 4.1675 2.14539 3.9575 2.5874L3.9125 2.6773C3.89 2.73724 3.83 2.7672 3.77 2.7672C1.9625 2.7672 0.5 4.23557 0.5 6.03357V10.4836C0.5 12.2816 1.9625 13.75 3.77 13.75H12.23C14.03 13.75 15.5 12.2816 15.5 10.4836V6.03357C15.5 4.23557 14.03 2.7672 12.23 2.7672C12.1625 2.7672 12.11 2.72974 12.08 2.6773Z" fill="#864AFC"/>
</svg>
