<svg width="30" height="30" viewBox="0 0 30 30" fill="none" xmlns="http://www.w3.org/2000/svg">
<path opacity="0.4" d="M15 30C6.7275 30 0 23.271 0 15C0 6.729 6.7275 0 15 0C23.271 0 30 6.729 30 15C30 23.271 23.271 30 15 30Z" fill="#864AFC"/>
<path d="M17.1636 21.3311C16.8771 21.3311 16.5891 21.2216 16.3701 21.0026L11.1396 15.7976C10.9281 15.5861 10.8096 15.2996 10.8096 14.9996C10.8096 14.7011 10.9281 14.4146 11.1396 14.2031L16.3701 8.99506C16.8096 8.55706 17.5206 8.55706 17.9601 8.99806C18.3981 9.43906 18.3966 10.1516 17.9571 10.5896L13.5276 14.9996L17.9571 19.4096C18.3966 19.8476 18.3981 20.5586 17.9601 20.9996C17.7411 21.2216 17.4516 21.3311 17.1636 21.3311Z" fill="#864AFC"/>
</svg>
