<svg width="24" height="24" viewBox="0 0 24 24" fill="none" xmlns="http://www.w3.org/2000/svg">
<path opacity="0.4" fill-rule="evenodd" clip-rule="evenodd" d="M11.9902 3.88189H12C13.3951 3.88189 14.7512 4.21662 16 4.84572L12.7415 8.13497C12.5073 8.09559 12.2537 8.06605 12 8.06605C9.8439 8.06605 8.09756 9.82832 8.09756 12.0041C8.09756 12.2601 8.12683 12.516 8.16585 12.7523L4.5561 16.395C3.58049 15.253 2.73171 13.8737 2.05854 12.2896C1.98049 12.1124 1.98049 11.8958 2.05854 11.7087C4.14634 6.80588 7.86341 3.88189 11.9902 3.88189ZM18.4293 6.54991C19.8439 7.84946 21.0439 9.60188 21.9415 11.7087C22.0195 11.8958 22.0195 12.1124 21.9415 12.2896C19.8537 17.1924 16.1366 20.1263 12 20.1263H11.9902C10.1073 20.1263 8.30244 19.506 6.71219 18.3739L9.80488 15.253C10.4293 15.6753 11.1902 15.9323 12 15.9323C14.1463 15.9323 15.8927 14.17 15.8927 12.0041C15.8927 11.1869 15.639 10.419 15.2195 9.78894L18.4293 6.54991Z" fill="#130F26"/>
<path fill-rule="evenodd" clip-rule="evenodd" d="M18.4293 6.54952L20.205 4.75771C20.4976 4.4722 20.4976 3.99964 20.205 3.71413C19.922 3.42862 19.4635 3.42862 19.1708 3.71413L18.2537 4.63957C18.244 4.65926 18.2245 4.67895 18.205 4.69864C18.1952 4.71833 18.1757 4.73802 18.1562 4.75771L17.2879 5.63491L14.1952 8.7558L3.72691 19.3186L3.69764 19.358C3.50252 19.6435 3.54154 20.0383 3.78545 20.2844C3.92203 20.4311 4.11715 20.5 4.30252 20.5C4.48789 20.5 4.67325 20.4311 4.81959 20.2844L15.2196 9.78855L18.4293 6.54952ZM12.0002 14.4555C13.3368 14.4555 14.4294 13.3529 14.4294 12.0041C14.4294 11.5906 14.3319 11.1968 14.1563 10.8621L10.8685 14.1798C11.2002 14.3571 11.5904 14.4555 12.0002 14.4555Z" fill="#130F26"/>
</svg>
