<svg width="21" height="21" viewBox="0 0 21 21" fill="none" xmlns="http://www.w3.org/2000/svg">
<path d="M7.52468 19.648V16.4534C7.52466 15.6438 8.18295 14.9861 8.99833 14.981H11.9923C12.8113 14.981 13.4752 15.6402 13.4752 16.4534V19.6388C13.4752 20.3409 14.0458 20.9115 14.753 20.9166H16.7956C17.7496 20.9191 18.6653 20.5446 19.3408 19.8757C20.0162 19.2069 20.3958 18.2987 20.3958 17.3516V8.2769C20.3958 7.51184 20.0542 6.78614 19.4631 6.29529L12.5239 0.785676C11.3109 -0.178018 9.57847 -0.146887 8.40141 0.859755L1.61143 6.29529C0.992397 6.77167 0.62241 7.49952 0.604126 8.2769V17.3423C0.604126 19.3163 2.21598 20.9166 4.20431 20.9166H6.20026C6.54076 20.9191 6.86817 20.7865 7.10983 20.5483C7.35148 20.3102 7.48738 19.9861 7.48737 19.648H7.52468Z" fill="#864AFC"/>
</svg>
